Run_40002
nRows=4
nColumns=164

# SIMM Motion File Header:
name Run_40002
datacolumns 164
datarows 4
otherdata 1
range 0.08000000 0.11000000
endheader
time	pelvis_tilt	pelvis_list	pelvis_rotation	pelvis_tx	pelvis_ty	pelvis_tz	hip_flexion_r	hip_adduction_r	hip_rotation_r	knee_angle_r	ankle_angle_r	hip_flexion_l	hip_adduction_l	hip_rotation_l	knee_angle_l	ankle_angle_l	lumbar_extension	lumbar_bending	lumbar_rotation	arm_flex_r	arm_add_r	arm_rot_r	elbow_flex_r	pro_sup_r	arm_flex_l	arm_add_l	arm_rot_l	elbow_flex_l	pro_sup_l	subtalar_angle_r	mtp_angle_r	subtalar_angle_l	mtp_angle_l	wrist_flex_r	wrist_dev_r	wrist_flex_l	wrist_dev_l	LASI_tx	LASI_ty	LASI_tz	RASI_tx	RASI_ty	RASI_tz	LPSI_tx	LPSI_ty	LPSI_tz	RPSI_tx	RPSI_ty	RPSI_tz	RTH1_tx	RTH1_ty	RTH1_tz	RTH2_tx	RTH2_ty	RTH2_tz	RTH3_tx	RTH3_ty	RTH3_tz	LTH1_tx	LTH1_ty	LTH1_tz	LTH2_tx	LTH2_ty	LTH2_tz	LTH3_tx	LTH3_ty	LTH3_tz	RTB1_tx	RTB1_ty	RTB1_tz	RTB2_tx	RTB2_ty	RTB2_tz	RTB3_tx	RTB3_ty	RTB3_tz	LTB1_tx	LTB1_ty	LTB1_tz	LTB2_tx	LTB2_ty	LTB2_tz	LTB3_tx	LTB3_ty	LTB3_tz	RCAL_tx	RCAL_ty	RCAL_tz	RTOE_tx	RTOE_ty	RTOE_tz	RMT5_tx	RMT5_ty	RMT5_tz	LCAL_tx	LCAL_ty	LCAL_tz	LTOE_tx	LTOE_ty	LTOE_tz	LMT5_tx	LMT5_ty	LMT5_tz	LACR_tx	LACR_ty	LACR_tz	RACR_tx	RACR_ty	RACR_tz	CLAV_tx	CLAV_ty	CLAV_tz	C7_tx	C7_ty	C7_tz	RUA1_tx	RUA1_ty	RUA1_tz	RUA2_tx	RUA2_ty	RUA2_tz	RUA3_tx	RUA3_ty	RUA3_tz	RLEL_tx	RLEL_ty	RLEL_tz	RMEL_tx	RMEL_ty	RMEL_tz	LUA1_tx	LUA1_ty	LUA1_tz	LUA2_tx	LUA2_ty	LUA2_tz	LUA3_tx	LUA3_ty	LUA3_tz	LLEL_tx	LLEL_ty	LLEL_tz	LMEL_tx	LMEL_ty	LMEL_tz	RFAsuperior_tx	RFAsuperior_ty	RFAsuperior_tz	RFAradius_tx	RFAradius_ty	RFAradius_tz	RFAulna_tx	RFAulna_ty	RFAulna_tz	LFAsuperior_tx	LFAsuperior_ty	LFAsuperior_tz	LFAradius_tx	LFAradius_ty	LFAradius_tz	LFAulna_tx	LFAulna_ty	LFAulna_tz
      0.08000000	      0.72377862	     -2.44739143	      0.32986610	      0.72094167	      0.97123089	     -0.30351766	     -6.71985487	      7.61242049	      2.98526945	    -28.92166138	     19.02164673	     36.17087490	      1.38670423	      1.00733087	    -93.24769173	     -6.77043956	    -13.82385524	      0.94490212	      6.50114340	    -10.88033581	    -28.15846254	     -7.90110848	     98.28611427	     67.27359255	    -22.08978658	    -19.45088045	      1.25577236	     87.79086253	     98.17554879	      0.00000000	      0.00000000	      0.00000000	      0.00000000	      0.00000000	      0.00000000	      0.00000000	      0.00000000	      0.72288292	      0.99091532	     -0.44099344	      0.72766059	      0.98913757	     -0.17142509	      0.55207173	      1.00981260	     -0.35845275	      0.55309288	      1.01347680	     -0.25851566	      0.61154907	      0.80933301	     -0.12713084	      0.67710240	      0.69726580	     -0.14934069	      0.58596895	      0.58537828	     -0.17698562	      0.69846772	      0.79171786	     -0.47223283	      0.83458375	      0.71729764	     -0.46525375	      0.84724802	      0.60105364	     -0.44618752	      0.56413463	      0.34165821	     -0.26011025	      0.51091148	      0.30296654	     -0.19829377	      0.45707070	      0.21090673	     -0.26457382	      0.82784767	      0.41861977	     -0.36717594	      0.73504282	      0.41160548	     -0.43731156	      0.68985588	      0.34362932	     -0.37169207	      0.28151085	      0.14403125	     -0.27437923	      0.49065937	      0.06185868	     -0.28024445	      0.43315301	      0.05953290	     -0.19070123	      0.51396692	      0.36818788	     -0.36877392	      0.60569900	      0.15936826	     -0.34661995	      0.56281128	      0.18928299	     -0.43531971	      0.70761252	      1.46100282	     -0.47978212	      0.73534836	      1.47910647	     -0.15051504	      0.78041682	      1.40489231	     -0.28697650	      0.65463514	      1.48919469	     -0.30584090	      0.69916724	      1.40740686	     -0.05736289	      0.63260024	      1.33027169	     -0.06332642	      0.67281576	      1.28865165	     -0.01358586	      0.65284718	      1.18750777	      0.03130993	      0.61944466	      1.16359479	     -0.03844922	      0.63711088	      1.39033723	     -0.55368499	      0.56975881	      1.32620738	     -0.51181748	      0.55045243	      1.27234446	     -0.57231002	      0.52685535	      1.19216493	     -0.60527053	      0.50212640	      1.18722130	     -0.53165892	      0.75683473	      1.15577220	      0.01667144	      0.89325321	      1.11482215	     -0.04918787	      0.86453362	      1.05289217	     -0.02864214	      0.61481035	      1.12028197	     -0.59799370	      0.72842556	      1.02558408	     -0.52276613	      0.68554540	      0.98238073	     -0.56110697
      0.09000000	      0.14000459	     -0.79260903	     -0.04459717	      0.72402595	      0.97626607	     -0.30388793	    -10.17693883	      5.43761293	      2.96541511	    -25.53450858	     14.76117404	     37.98626998	      2.92049254	     -0.26406767	    -88.35565126	     -5.36356819	    -12.71639198	     -1.07407124	      7.43887757	    -11.26866471	    -28.10411798	     -9.04062719	     99.73400222	     68.15829100	    -25.41871588	    -20.05140775	     -0.60231312	     89.90444039	     96.81098595	      0.00000000	      0.00000000	      0.00000000	      0.00000000	      0.00000000	      0.00000000	      0.00000000	      0.00000000	      0.72511925	      0.99839045	     -0.43994734	      0.73043965	      0.99050149	     -0.17103510	      0.55577217	      1.01718521	     -0.35977240	      0.55642111	      1.01843203	     -0.25979731	      0.60500069	      0.81340465	     -0.12760440	      0.66417448	      0.70068933	     -0.14992906	      0.56607700	      0.59416760	     -0.17732936	      0.70657325	      0.80170113	     -0.47578599	      0.84300058	      0.73116372	     -0.46525514	      0.85855202	      0.61442815	     -0.44693350	      0.53456282	      0.34923599	     -0.25772527	      0.48034213	      0.31220940	     -0.19629290	      0.42583414	      0.22027022	     -0.26270872	      0.84962713	      0.42642235	     -0.36769441	      0.75724954	      0.40900479	     -0.43511210	      0.72094002	      0.33573746	     -0.36967773	      0.25099238	      0.15882580	     -0.27296251	      0.45281898	      0.06175045	     -0.27931300	      0.39595991	      0.06028229	     -0.19167071	      0.54251976	      0.33890648	     -0.36465430	      0.66100035	      0.14529096	     -0.34322660	      0.61350373	      0.16848793	     -0.43240587	      0.70458848	      1.46800279	     -0.48047118	      0.73802736	      1.48602270	     -0.15317806	      0.78150169	      1.41208907	     -0.29003274	      0.65472222	      1.49450025	     -0.30649485	      0.70327132	      1.41500779	     -0.05900376	      0.63619075	      1.33846542	     -0.06286230	      0.67881954	      1.29625530	     -0.01415940	      0.65969780	      1.19549188	      0.03157171	      0.62599101	      1.17097684	     -0.03830214	      0.63055213	      1.40217352	     -0.55322311	      0.56324685	      1.33959331	     -0.51031381	      0.54017144	      1.28680400	     -0.57117597	      0.51186717	      1.20814841	     -0.60281735	      0.49042253	      1.20325159	     -0.52828010	      0.76433026	      1.16727928	      0.01591733	      0.90089497	      1.13056413	     -0.05217692	      0.87506382	      1.06785545	     -0.03020897	      0.59898614	      1.13562865	     -0.59979689	      0.71397186	      1.03883391	     -0.53054024	      0.66898781	      0.99585024	     -0.56649404
      0.10000000	     -0.30499488	      0.91313623	     -0.40518073	      0.72742629	      0.98143629	     -0.30419950	    -13.68393659	      3.16865401	      2.55191735	    -22.04074821	      9.63634803	     39.22600522	      4.42987617	     -1.49016482	    -82.82999332	     -4.29978896	    -11.75143215	     -3.16764947	      8.28562568	    -11.67064678	    -28.03355181	     -9.99315438	    101.18126377	     69.00616514	    -28.77651872	    -20.64164997	     -2.55023256	     92.09172173	     95.51252489	      0.00000000	      0.00000000	      0.00000000	      0.00000000	      0.00000000	      0.00000000	      0.00000000	      0.00000000	      0.72790645	      1.00610057	     -0.43876561	      0.73337811	      0.99274926	     -0.17114076	      0.55986093	      1.02413981	     -0.36070441	      0.56013216	      1.02366533	     -0.26076751	      0.59907469	      0.81855975	     -0.12859211	      0.65224571	      0.70475314	     -0.15027487	      0.54739686	      0.60439030	     -0.17708110	      0.71435269	      0.81237235	     -0.47889203	      0.85047827	      0.74437410	     -0.46544125	      0.86821312	      0.62720478	     -0.44748648	      0.50668168	      0.35818343	     -0.25477694	      0.45095799	      0.32285525	     -0.19365287	      0.39638890	      0.23023044	     -0.26021665	      0.87046315	      0.43243313	     -0.36816910	      0.77894719	      0.40520133	     -0.43295522	      0.75212311	      0.32762978	     -0.36757215	      0.22279530	      0.17464231	     -0.27158415	      0.41551984	      0.06139829	     -0.27853707	      0.35908420	      0.06175812	     -0.19221317	      0.57329050	      0.30929752	     -0.36030165	      0.71699077	      0.13276902	     -0.34038403	      0.66497416	      0.14911452	     -0.42951038	      0.70202169	      1.47499084	     -0.48118589	      0.74061261	      1.49287369	     -0.15588769	      0.78255885	      1.41933505	     -0.29309178	      0.65489452	      1.49983845	     -0.30718682	      0.70708279	      1.42266326	     -0.06070112	      0.63976096	      1.34668387	     -0.06248174	      0.68444811	      1.30401781	     -0.01474232	      0.66592211	      1.20364861	      0.03179617	      0.63179602	      1.17863317	     -0.03812665	      0.62502183	      1.41389543	     -0.55274748	      0.55738198	      1.35339640	     -0.50909793	      0.53096714	      1.30120324	     -0.56992964	      0.49812568	      1.22415748	     -0.60019634	      0.48003994	      1.21929045	     -0.52460516	      0.77105632	      1.17880264	      0.01502111	      0.90749500	      1.14595636	     -0.05531379	      0.88449141	      1.08251483	     -0.03202079	      0.58436627	      1.15117912	     -0.60117984	      0.70051487	      1.05227174	     -0.53747404	      0.65364723	      1.00953046	     -0.57126754
      0.11000000	     -0.61927373	      2.50164061	     -0.71157141	      0.73109937	      0.98692186	     -0.30439840	    -17.02882575	      1.03101785	      1.69328818	    -18.82909836	      3.66493816	     39.84569090	      5.79026584	     -2.51699962	    -76.58987595	     -3.43887662	    -10.94604976	     -5.14152663	      8.95524849	    -12.07722727	    -27.93042687	    -10.65213373	    102.57157400	     69.81164447	    -32.07365184	    -21.10794268	     -4.54278980	     94.26595309	     94.39460439	      0.00000000	      0.00000000	      0.00000000	      0.00000000	      0.00000000	      0.00000000	      0.00000000	      0.00000000	      0.73130783	      1.01401838	     -0.43754612	      0.73661106	      0.99609466	     -0.17188499	      0.56432323	      1.03069477	     -0.36109268	      0.56427440	      1.02925826	     -0.26132576	      0.59426692	      0.82503958	     -0.12998926	      0.64172451	      0.70964764	     -0.15019050	      0.53084256	      0.61614248	     -0.17625682	      0.72146918	      0.82389401	     -0.48118252	      0.85656019	      0.75643281	     -0.46580159	      0.87505309	      0.63861128	     -0.44742954	      0.48169179	      0.36892960	     -0.25123029	      0.42379233	      0.33549753	     -0.19026909	      0.37000719	      0.24116079	     -0.25672723	      0.88958175	      0.43622459	     -0.36867701	      0.79989805	      0.39957837	     -0.43100431	      0.78334939	      0.31919775	     -0.36561813	      0.19817449	      0.19216134	     -0.27005381	      0.37901526	      0.06123194	     -0.27790735	      0.32297735	      0.06482371	     -0.19210343	      0.60736952	      0.27933906	     -0.35558630	      0.77371362	      0.12277093	     -0.33852002	      0.71740154	      0.13161174	     -0.42674013	      0.70016603	      1.48182792	     -0.48193802	      0.74300626	      1.49955020	     -0.15862006	      0.78354530	      1.42649931	     -0.29608533	      0.65519067	      1.50517606	     -0.30794614	      0.71045046	      1.43032207	     -0.06246798	      0.64327653	      1.35487480	     -0.06224018	      0.68945482	      1.31192154	     -0.01535187	      0.67122801	      1.21195663	      0.03197994	      0.63653224	      1.18654507	     -0.03791602	      0.62097948	      1.42525332	     -0.55236177	      0.55266207	      1.36752436	     -0.50819827	      0.52331883	      1.31537445	     -0.56849978	      0.48630528	      1.24000801	     -0.59740101	      0.47164186	      1.23516842	     -0.52065474	      0.77659872	      1.19015733	      0.01388622	      0.91253996	      1.16056695	     -0.05864690	      0.89221747	      1.09647817	     -0.03420708	      0.57147659	      1.16664366	     -0.60195830	      0.68863765	      1.06575964	     -0.54318500	      0.64018200	      1.02331684	     -0.57508430
